<?xml version="1.0" standalone="no"?>
<!DOCTYPE svg PUBLIC "-//W3C//DTD SVG 20010904//EN"
 "http://www.w3.org/TR/2001/REC-SVG-20010904/DTD/svg10.dtd">
<svg version="1.0" xmlns="http://www.w3.org/2000/svg"
 width="56.000000pt" height="30.000000pt" viewBox="0 0 56.000000 30.000000"
 preserveAspectRatio="xMidYMid meet">
<metadata>
Created by potrace 1.10, written by Peter Selinger 2001-2011
</metadata>
<g transform="translate(0.000000,30.000000) scale(0.100000,-0.100000)"
fill="#ffffff" stroke="none">
<path d="M153 280 c5 -18 -1 -19 -77 -22 l-81 -3 26 -27 c26 -26 67 -41 140
-53 28 -4 38 -11 43 -28 3 -13 15 -34 26 -47 11 -13 17 -26 12 -29 -5 -3 -14
-21 -20 -38 l-11 -33 110 0 c60 0 109 2 109 5 0 2 -7 23 -16 46 -11 27 -13 43
-7 47 6 4 18 25 27 47 22 52 61 92 97 100 22 5 29 12 29 31 l0 24 -206 0
c-200 0 -206 -1 -201 -20z m180 -30 c-3 -11 0 -26 6 -34 6 -7 8 -22 4 -31 -4
-13 -3 -16 6 -11 9 6 10 0 5 -21 -7 -25 -6 -27 9 -14 15 12 17 11 17 -8 0 -46
-96 -46 -121 0 -14 27 -3 41 21 27 26 -16 36 -4 22 27 -9 20 -9 25 3 25 9 0
12 6 9 15 -4 8 -1 22 6 30 17 20 19 19 13 -5z"/>
</g>
</svg>
