 <svg  version="1.0" xmlns="http://www.w3.org/2000/svg"  width="300.000000pt" height="300.000000pt" viewBox="0 0 300.000000 300.000000"  preserveAspectRatio="xMidYMid meet">  <g transform="translate(0.000000,300.000000) scale(0.100000,-0.100000)" fill="#ffffff" stroke="none"> <path d="M1060 2449 c-109 -23 -200 -51 -328 -101 l-103 -41 -56 -91 c-160 -257 -267 -560 -309 -866 -16 -120 -19 -462 -4 -489 11 -21 158 -118 270 -179 76 -41 212 -100 308 -133 l53 -18 70 106 c38 59 66 110 62 113 -5 4 -42 21 -83 39 -41 17 -86 40 -99 50 l-24 18 26 17 c25 17 29 16 114 -18 349 -139 736 -139 1084 0 48 19 91 34 96 34 6 0 18 -8 27 -19 16 -18 16 -20 -16 -39 -18 -11 -66 -35 -106 -54 l-73 -33 51 -85 c28 -47 59 -96 69 -109 l19 -24 93 32 c129 45 314 138 434 219 l100 67 8 60 c13 93 0 375 -22 510 -49 287 -153 564 -303 801 l-53 84 -105 44 c-106 45 -234 86 -325 106 -27 6 -57 13 -66 16 -12 3 -25 -14 -49 -65 l-34 -70 -60 7 c-79 9 -373 9 -452 0 l-61 -7 -19 42 c-10 23 -25 54 -34 68 l-15 26 -85 -18z m120 -829 c49 -25 104 -89 118 -139 28 -91 5 -195 -56 -256 -95 -95 -207 -98 -302 -9 -143 134 -88 365 100 425 35 11 94 2 140 -21z m788 18 c64 -16 143 -94 161 -161 16 -57 10 -151 -13 -194 -36 -70 -126 -132 -191 -133 -16 0 -48 5 -70 11 -53 14 -136 99 -153 155 -43 144 29 282 168 325 36 11 46 10 98 -3z"/> </g> </svg> 