 <svg  version="1.0" xmlns="http://www.w3.org/2000/svg"  width="300.000000pt" height="300.000000pt" viewBox="0 0 300.000000 300.000000"  preserveAspectRatio="xMidYMid meet">  <g transform="translate(0.000000,300.000000) scale(0.100000,-0.100000)" fill="#ffffff" stroke="none"> <path d="M1350 2993 c-455 -49 -869 -302 -1112 -678 -115 -177 -189 -371 -223 -577 l-12 -78 127 0 127 0 13 73 c27 152 98 325 190 463 66 98 242 274 335 336 150 97 309 162 480 193 134 25 385 16 516 -18 372 -98 659 -333 823 -674 22 -46 37 -85 34 -88 -6 -6 -217 -65 -233 -65 -5 0 -18 20 -28 43 -52 126 -202 301 -337 391 -79 54 -241 129 -251 118 -4 -4 -14 -50 -23 -102 -9 -52 -19 -107 -22 -121 -4 -23 1 -29 68 -62 189 -93 336 -278 383 -481 21 -88 21 -243 1 -329 -31 -132 -114 -276 -210 -365 -42 -39 -152 -116 -178 -124 -9 -3 42 -225 58 -250 6 -10 125 51 191 98 124 88 269 264 328 398 58 131 77 221 83 383 l4 153 42 11 c22 5 74 19 114 30 41 11 76 18 79 15 3 -3 9 -45 14 -93 8 -91 -2 -252 -21 -337 -6 -27 -9 -51 -6 -53 3 -3 58 -25 123 -48 137 -50 122 -58 150 82 24 123 24 404 -1 528 -101 506 -428 914 -894 1115 -217 94 -502 138 -732 113z"/> <path d="M1306 2464 c-371 -73 -665 -352 -763 -720 -21 -82 -26 -123 -27 -234 -1 -143 9 -206 51 -328 14 -41 23 -75 21 -77 -13 -12 -208 -125 -216 -125 -23 0 -105 269 -114 375 l-3 30 -128 3 -129 3 7 -53 c74 -600 465 -1078 1032 -1264 168 -55 263 -69 468 -68 255 1 418 37 641 143 164 78 265 151 409 296 131 130 208 233 273 361 l31 62 -62 22 c-34 12 -90 33 -124 46 l-62 23 -36 -64 c-87 -156 -241 -324 -384 -419 -204 -136 -466 -216 -704 -216 -107 0 -269 28 -384 65 -167 55 -297 130 -441 254 -54 46 -152 157 -152 171 0 8 202 130 214 130 3 0 25 -21 48 -47 112 -122 285 -228 455 -279 73 -22 114 -27 241 -32 135 -4 152 -3 152 12 0 8 -13 65 -30 126 -16 61 -30 111 -30 113 0 1 -38 3 -84 4 -139 2 -271 44 -385 122 -56 39 -131 108 -131 121 0 4 55 40 123 80 67 41 130 78 140 84 15 9 31 -2 105 -82 l87 -93 185 60 185 60 96 118 c135 166 127 148 94 227 -18 42 -34 66 -44 66 -9 0 -59 -14 -111 -31 -86 -29 -100 -37 -145 -86 -43 -46 -59 -56 -116 -72 l-67 -19 -50 52 c-37 37 -58 70 -77 120 l-26 69 50 51 c42 42 63 55 123 73 66 20 80 29 147 96 83 85 83 86 18 160 l-42 48 -170 -37 c-193 -41 -166 -24 -336 -205 l-108 -116 39 -104 c22 -57 40 -109 40 -116 0 -12 -259 -173 -278 -173 -5 0 -18 28 -28 63 -29 96 -26 288 4 387 32 99 72 177 129 247 49 61 63 75 128 128 91 75 245 134 386 150 l56 6 17 102 c10 56 20 112 23 125 5 22 3 22 -78 21 -46 0 -115 -7 -153 -15z"/> </g> </svg> 