 <svg  version="1.0" xmlns="http://www.w3.org/2000/svg"  width="300.000000pt" height="300.000000pt" viewBox="0 0 300.000000 300.000000"  preserveAspectRatio="xMidYMid meet">  <g transform="translate(0.000000,300.000000) scale(0.100000,-0.100000)" fill="#ffffff" stroke="none"> <path d="M1001 2239 c-91 -4 -203 -13 -250 -19 -266 -35 -315 -149 -315 -720 0 -481 34 -612 183 -690 128 -67 1394 -81 1698 -19 119 24 194 109 218 246 40 228 45 624 11 863 -25 172 -72 251 -178 294 -112 46 -838 70 -1367 45z m838 -739 c0 -3 -123 -76 -274 -162 l-275 -157 0 319 0 319 275 -157 c151 -86 274 -159 274 -162z"/> </g> </svg> 